<svg xmlns="http://www.w3.org/2000/svg" xmlns:xlink="http://www.w3.org/1999/xlink" width="500" zoomAndPan="magnify" viewBox="0 0 375 374.999991" height="500" preserveAspectRatio="xMidYMid meet" version="1.0"><defs><clipPath id="21d414363f"><path d="M 118.925781 118.925781 L 256.074219 118.925781 L 256.074219 256.074219 L 118.925781 256.074219 Z M 118.925781 118.925781 " clip-rule="nonzero"/></clipPath><clipPath id="6906378a2c"><path d="M 187.5 118.925781 C 149.628906 118.925781 118.925781 149.628906 118.925781 187.5 C 118.925781 225.371094 149.628906 256.074219 187.5 256.074219 C 225.371094 256.074219 256.074219 225.371094 256.074219 187.5 C 256.074219 149.628906 225.371094 118.925781 187.5 118.925781 Z M 187.5 118.925781 " clip-rule="nonzero"/></clipPath></defs><g clip-path="url(#21d414363f)"><g clip-path="url(#6906378a2c)"><path stroke-linecap="butt" transform="matrix(0.91433, 0, 0, 0.91433, 118.925248, 118.925243)" fill="none" stroke-linejoin="miter" d="M 75.000016 0.000588255 C 33.580506 0.000588255 0.000583334 33.580511 0.000583334 75.000021 C 0.000583334 116.419531 33.580506 149.999453 75.000016 149.999453 C 116.419526 149.999453 149.999448 116.419531 149.999448 75.000021 C 149.999448 33.580511 116.419526 0.000588255 75.000016 0.000588255 Z M 75.000016 0.000588255 " stroke="#ffffff" stroke-width="3.281092" stroke-opacity="1" stroke-miterlimit="4"/></g></g><path stroke-linecap="butt" transform="matrix(0.91433, 0, 0, 0.91433, 118.925248, 186.585648)" fill="none" stroke-linejoin="miter" d="M 0.000583334 1.000025 L 149.999448 1.000025 " stroke="#ffffff" stroke-width="2" stroke-opacity="1" stroke-miterlimit="4"/><path stroke-linecap="butt" transform="matrix(-0.01219, -0.914249, 0.914249, -0.01219, 186.579573, 256.080804)" fill="none" stroke-linejoin="miter" d="M -0.00183365 0.998188 L 150.014628 0.998814 " stroke="#ffffff" stroke-width="2" stroke-opacity="1" stroke-miterlimit="4"/></svg>