<svg xmlns="http://www.w3.org/2000/svg" xmlns:xlink="http://www.w3.org/1999/xlink" width="500" zoomAndPan="magnify" viewBox="0 0 375 374.999991" height="500" preserveAspectRatio="xMidYMid meet" version="1.0"><defs><clipPath id="8d36bddc94"><path d="M 40.050781 37.5 L 334.9375 37.5 L 334.9375 332.382812 L 40.050781 332.382812 Z M 40.050781 37.5 " clip-rule="nonzero"/></clipPath><clipPath id="1f3fde389c"><path d="M 187.496094 37.5 C 106.066406 37.5 40.050781 103.511719 40.050781 184.941406 C 40.050781 266.371094 106.066406 332.382812 187.496094 332.382812 C 268.925781 332.382812 334.9375 266.371094 334.9375 184.941406 C 334.9375 103.511719 268.925781 37.5 187.496094 37.5 Z M 187.496094 37.5 " clip-rule="nonzero"/></clipPath></defs><g clip-path="url(#8d36bddc94)"><g clip-path="url(#1f3fde389c)"><path stroke-linecap="butt" transform="matrix(1.612631, 0, 0, 1.612631, 40.052327, 37.499998)" fill="none" stroke-linejoin="miter" d="M 91.430577 0.00000152701 C 40.935643 0.00000152701 -0.000958669 40.934181 -0.000958669 91.429115 C -0.000958669 141.92405 40.935643 182.858229 91.430577 182.858229 C 141.925512 182.858229 182.859691 141.92405 182.859691 91.429115 C 182.859691 40.934181 141.925512 0.00000152701 91.430577 0.00000152701 Z M 91.430577 0.00000152701 " stroke="#ffffff" stroke-width="9.30157" stroke-opacity="1" stroke-miterlimit="4"/></g></g><path stroke-linecap="round" transform="matrix(1.612631, 0, 0, 1.612631, 77.074115, 178.497132)" fill="none" stroke-linejoin="miter" d="M 3.999255 4.000969 L 132.951972 4.000969 " stroke="#ffffff" stroke-width="8" stroke-opacity="1" stroke-miterlimit="4"/><path stroke-linecap="round" transform="matrix(-0.0214998, -1.612487, 1.612487, -0.0214998, 182.514002, 295.451261)" fill="none" stroke-linejoin="miter" d="M 4.000767 4.000602 L 132.962535 4.000117 " stroke="#ffffff" stroke-width="8" stroke-opacity="1" stroke-miterlimit="4"/></svg>